<?xml version="1.0" encoding="iso-8859-1"?>
<!-- Uploaded to: SVG Repo, www.svgrepo.com, Generator: SVG Repo Mixer Tools -->
<svg height="800px" width="800px" version="1.1" id="Layer_1" xmlns="http://www.w3.org/2000/svg" xmlns:xlink="http://www.w3.org/1999/xlink" 
	 viewBox="0 0 512 512" xml:space="preserve">
<path style="fill:#E21B1B;" d="M224.192,228.63v-27.68c45.056-25.512,60.896-82.72,35.384-127.776S176.856,12.278,131.8,37.79
	s-60.896,82.72-35.384,127.776c8.368,14.784,20.6,27.016,35.384,35.384v27.68C44.424,232.718,0,291.79,0,331.502v32.608h356v-32.608
	C356,291.79,311.56,232.718,224.192,228.63z"/>
<path style="fill:#2D2D2D;" d="M438.768,306.35h-17.664v-39.576c0-4.864-3.936-8.8-8.8-8.8H329.12c-4.864,0-8.8,3.936-8.8,8.8
	v39.576h-17.696v-39.576c0.056-14.584,11.912-26.36,26.496-26.304l0,0h83.152c14.584-0.056,26.44,11.72,26.496,26.304l0,0
	L438.768,306.35L438.768,306.35z"/>
<path style="fill:#999999;" d="M269.08,296.078l-39.696,190.32H512l-39.696-190.32H269.08z"/>
<path style="fill:#FFFFFF;" d="M328,363.294c-8.464-0.056-15.28-6.952-15.224-15.416s6.952-15.28,15.416-15.224
	c8.424,0.056,15.224,6.896,15.224,15.32C343.392,356.462,336.488,363.318,328,363.294L328,363.294z M413.376,363.294
	c-8.464-0.056-15.272-6.96-15.216-15.424c0.056-8.464,6.96-15.272,15.424-15.216c8.424,0.056,15.216,6.896,15.216,15.32
	c-0.024,8.488-6.928,15.344-15.416,15.32C413.384,363.294,413.384,363.294,413.376,363.294L413.376,363.294z"/>
</svg>